<svg version="1.0" xmlns="http://www.w3.org/2000/svg" width="800" height="800" viewBox="0 0 600 600"><path d="M161.5 65.5C76.5 109.7 34.6 132 32.7 134l-2.7 3v162.5c0 124.7.3 163 1.2 165.1 1 2.2 23.1 13.5 134 69 73 36.5 133.7 66.4 134.8 66.4 1.1 0 61.8-29.9 134.8-66.4 110.9-55.5 133-66.8 134-69 .9-2.1 1.2-40.4 1.2-165.1V137.2l-2.4-2.9c-1.8-2.2-37.5-19.8-138.9-68.6C353.7 29.6 291.2 0 289.9 0c-1.3 0-59.1 29.5-128.4 65.5zm259.2 18.6c63.4 30.5 115.3 55.7 115.3 56.1 0 .5-53.1 27.3-118 59.8l-118 59-118.5-59.2C116.3 167.2 63 140.2 63 139.9c0-.4 51.1-27.2 113.6-59.7l113.7-59.1 7.6 3.8c4.2 2 59.5 28.7 122.8 59.2zM550 305.5V454l-119 59.5C365.6 546.2 311.6 573 311 573c-.7 0-1-50-1-148.5V276l118.8-59.4c65.3-32.7 119.3-59.5 120-59.5.9-.1 1.2 30.2 1.2 148.4z"/></svg>