<?xml version="1.0" standalone="no"?>
<!DOCTYPE svg PUBLIC "-//W3C//DTD SVG 20010904//EN"
 "http://www.w3.org/TR/2001/REC-SVG-20010904/DTD/svg10.dtd">
<svg version="1.0" xmlns="http://www.w3.org/2000/svg"
 width="600.000000pt" height="600.000000pt" viewBox="0 0 600.000000 600.000000"
 preserveAspectRatio="xMidYMid meet">
<metadata>
Created by potrace 1.11, written by Peter Selinger 2001-2013
</metadata>
<g transform="translate(0.000000,600.000000) scale(0.100000,-0.100000)"
fill="#000000" stroke="none">
<path d="M1615 5345 c-850 -442 -1269 -665 -1288 -685 l-27 -30 0 -1625 c0
-1247 3 -1630 12 -1651 10 -22 231 -135 1340 -690 730 -365 1337 -664 1348
-664 11 0 618 299 1348 664 1109 555 1330 668 1340 690 9 21 12 404 12 1651
l0 1623 -24 29 c-18 22 -375 198 -1389 686 -750 361 -1375 657 -1388 657 -13
0 -591 -295 -1284 -655z m2592 -186 c634 -305 1153 -557 1153 -561 0 -5 -531
-273 -1180 -598 l-1180 -590 -1185 592 c-652 326 -1185 596 -1185 599 0 4 511
272 1136 597 l1137 591 76 -38 c42 -20 595 -287 1228 -592z m1293 -2214 l0
-1485 -1190 -595 c-654 -327 -1194 -595 -1200 -595 -7 0 -10 500 -10 1485 l0
1485 1188 594 c653 327 1193 595 1200 595 9 1 12 -302 12 -1484z"/>
</g>
</svg>
